ffmpeg started on 2026-01-19 at 14:59:04
Report written to "D:\Convert\FFMetrics\reports\ssim_report-6.txt"
Log level: 32
Command line:
ffmpeg -hide_banner -nostdin -r 24000/1001 -i "F:\\Convert\\files\\[DC] Make Heroine ga Oosugiru - 07_Telegram_HEVC(186).mkv" -r 24000/1001 -i "F:\\Convert\\files\\[DC] Make Heroine ga Oosugiru - 07_Telegram.mp4" -lavfi "[0:v]settb=AVTB,setpts=PTS-STARTPTS,format=pix_fmts=yuv420p10le,fps=24000/1001,scale=1920:1080:flags=lanczos:param0=3:out_range=limited:out_color_matrix=bt709:out_chroma_loc=left,setsar=1/1,setdar=(1920/1080)*(1/1),colorspace=format=yuv420p10:range=tv:primaries=bt709:trc=bt709:space=bt709:fast=0[main];[1:v]settb=AVTB,setpts=PTS-STARTPTS,format=pix_fmts=yuv420p,fps=24000/1001,scale=1920:1080:flags=lanczos:param0=3:out_range=limited:out_color_matrix=bt709:out_chroma_loc=left,setsar=1.000,setdar=1.778,colorspace=format=yuv420p:range=tv:primaries=bt709:trc=bt709:space=bt709:fast=0[ref];[main][ref]ssim=eof_action=endall:stats_file='D\\:/Convert/FFMetrics/logs/ssim_logfile-6.txt'" -f null -
Input #0, matroska,webm, from 'F:\Convert\files\[DC] Make Heroine ga Oosugiru - 07_Telegram_HEVC(186).mkv':
  Metadata:
    COMPATIBLE_BRANDS: isomiso2avc1mp41
    MAJOR_BRAND     : isom
    MINOR_VERSION   : 512
    ENCODER         : Lavf61.7.100
  Duration: 00:24:06.79, start: -0.021000, bitrate: 1069 kb/s
  Stream #0:0: Video: hevc (Main 10), yuv420p10le(tv, bt709, progressive), 1920x1080 [SAR 1:1 DAR 16:9], 23.98 fps, 23.98 tbr, 1k tbn (default)
      Metadata:
        HANDLER_NAME    : VideoHandler
        VENDOR_ID       : [0][0][0][0]
        ENCODER         : Lavc61.19.100 libx265
        BPS             : 872453
        DURATION        : 00:24:06.569708333
        NUMBER_OF_FRAMES: 34683
        NUMBER_OF_BYTES : 157758080
        _STATISTICS_WRITING_APP: mkvpropedit v94.0 ('Initiate') 64-bit
        _STATISTICS_WRITING_DATE_UTC: 2026-01-19 10:40:32
        _STATISTICS_TAGS: BPS DURATION NUMBER_OF_FRAMES NUMBER_OF_BYTES
  Stream #0:1: Audio: aac (LC), 48000 Hz, stereo, fltp (default)
      Metadata:
        HANDLER_NAME    : SoundHandler
        VENDOR_ID       : [0][0][0][0]
        ENCODER         : Lavc61.19.100 aac
        BPS             : 193194
        DURATION        : 00:24:06.784000000
        NUMBER_OF_FRAMES: 67819
        NUMBER_OF_BYTES : 34938755
        _STATISTICS_WRITING_APP: mkvpropedit v94.0 ('Initiate') 64-bit
        _STATISTICS_WRITING_DATE_UTC: 2026-01-19 10:40:32
        _STATISTICS_TAGS: BPS DURATION NUMBER_OF_FRAMES NUMBER_OF_BYTES
Input #1, mov,mp4,m4a,3gp,3g2,mj2, from 'F:\Convert\files\[DC] Make Heroine ga Oosugiru - 07_Telegram.mp4':
  Metadata:
    major_brand     : isom
    minor_version   : 512
    compatible_brands: isomiso2avc1mp41
    encoder         : Lavf60.16.100
  Duration: 00:24:06.74, start: 0.000000, bitrate: 3764 kb/s
  Stream #1:0[0x1](und): Video: h264 (High) (avc1 / 0x31637661), yuv420p(tv, bt709, progressive), 1920x1080 [SAR 1:1 DAR 16:9], 3616 kb/s, 23.98 fps, 23.98 tbr, 24k tbn (default)
      Metadata:
        handler_name    : VideoHandler
        vendor_id       : [0][0][0][0]
        encoder         : Lavc60.31.102 h264_qsv
  Stream #1:1[0x2](und): Audio: aac (HE-AACv2) (mp4a / 0x6134706D), 48000 Hz, stereo, fltp, 144 kb/s (default)
      Metadata:
        handler_name    : SoundHandler
        vendor_id       : [0][0][0][0]
Stream mapping:
  Stream #0:0 (hevc) -> settb:default
  Stream #1:0 (h264) -> settb:default
  ssim:default -> Stream #0:0 (wrapped_avframe)
  Stream #0:1 -> #0:1 (aac (native) -> pcm_s16le (native))
Output #0, null, to 'pipe:':
  Metadata:
    COMPATIBLE_BRANDS: isomiso2avc1mp41
    MAJOR_BRAND     : isom
    MINOR_VERSION   : 512
    encoder         : Lavf61.7.100
  Stream #0:0: Video: wrapped_avframe, yuv420p10le(tv, bt709, progressive), 1920x1080 [SAR 1:1 DAR 16:9], q=2-31, 200 kb/s, 23.98 fps, 23.98 tbn
      Metadata:
        encoder         : Lavc61.19.100 wrapped_avframe
  Stream #0:1: Audio: pcm_s16le, 48000 Hz, stereo, s16, 1536 kb/s (default)
      Metadata:
        HANDLER_NAME    : SoundHandler
        VENDOR_ID       : [0][0][0][0]
        _STATISTICS_TAGS: BPS DURATION NUMBER_OF_FRAMES NUMBER_OF_BYTES
        BPS             : 193194
        DURATION        : 00:24:06.784000000
        NUMBER_OF_FRAMES: 67819
        NUMBER_OF_BYTES : 34938755
        _STATISTICS_WRITING_APP: mkvpropedit v94.0 ('Initiate') 64-bit
        _STATISTICS_WRITING_DATE_UTC: 2026-01-19 10:40:32
        encoder         : Lavc61.19.100 pcm_s16le
frame=  118 fps=0.0 q=-0.0 size=N/A time=00:00:04.92 bitrate=N/A speed=9.51x    frame=  300 fps=292 q=-0.0 size=N/A time=00:00:12.51 bitrate=N/A speed=12.2x    frame=  480 fps=312 q=-0.0 size=N/A time=00:00:20.02 bitrate=N/A speed=  13x    frame=  667 fps=323 q=-0.0 size=N/A time=00:00:27.81 bitrate=N/A speed=13.5x    frame=  845 fps=328 q=-0.0 size=N/A time=00:00:35.24 bitrate=N/A speed=13.7x    frame=  984 fps=319 q=-0.0 size=N/A time=00:00:41.04 bitrate=N/A speed=13.3x    frame= 1143 fps=316 q=-0.0 size=N/A time=00:00:47.67 bitrate=N/A speed=13.2x    frame= 1299 fps=315 q=-0.0 size=N/A time=00:00:54.17 bitrate=N/A speed=13.1x    frame= 1457 fps=314 q=-0.0 size=N/A time=00:01:00.76 bitrate=N/A speed=13.1x    frame= 1604 fps=311 q=-0.0 size=N/A time=00:01:06.90 bitrate=N/A speed=  13x    frame= 1746 fps=308 q=-0.0 size=N/A time=00:01:12.82 bitrate=N/A speed=12.8x    frame= 1905 fps=308 q=-0.0 size=N/A time=00:01:19.45 bitrate=N/A speed=12.9x    frame= 2054 fps=306 q=-0.0 size=N/A time=00:01:25.66 bitrate=N/A speed=12.8x    frame= 2167 fps=300 q=-0.0 size=N/A time=00:01:30.38 bitrate=N/A speed=12.5x    frame= 2324 fps=301 q=-0.0 size=N/A time=00:01:36.93 bitrate=N/A speed=12.5x    frame= 2457 fps=298 q=-0.0 size=N/A time=00:01:42.47 bitrate=N/A speed=12.4x    frame= 2590 fps=296 q=-0.0 size=N/A time=00:01:48.02 bitrate=N/A speed=12.3x    frame= 2761 fps=298 q=-0.0 size=N/A time=00:01:55.15 bitrate=N/A speed=12.4x    frame= 2930 fps=299 q=-0.0 size=N/A time=00:02:02.20 bitrate=N/A speed=12.5x    frame= 3111 fps=302 q=-0.0 size=N/A time=00:02:09.75 bitrate=N/A speed=12.6x    frame= 3297 fps=305 q=-0.0 size=N/A time=00:02:17.51 bitrate=N/A speed=12.7x    frame= 3484 fps=307 q=-0.0 size=N/A time=00:02:25.31 bitrate=N/A speed=12.8x    frame= 3665 fps=309 q=-0.0 size=N/A time=00:02:32.86 bitrate=N/A speed=12.9x    frame= 3856 fps=312 q=-0.0 size=N/A time=00:02:40.82 bitrate=N/A speed=  13x    frame= 4034 fps=313 q=-0.0 size=N/A time=00:02:48.25 bitrate=N/A speed=13.1x    frame= 4214 fps=315 q=-0.0 size=N/A time=00:02:55.75 bitrate=N/A speed=13.1x    frame= 4398 fps=316 q=-0.0 size=N/A time=00:03:03.43 bitrate=N/A speed=13.2x    frame= 4586 fps=318 q=-0.0 size=N/A time=00:03:11.27 bitrate=N/A speed=13.3x    frame= 4771 fps=319 q=-0.0 size=N/A time=00:03:18.99 bitrate=N/A speed=13.3x    frame= 4961 fps=321 q=-0.0 size=N/A time=00:03:26.91 bitrate=N/A speed=13.4x    frame= 5142 fps=322 q=-0.0 size=N/A time=00:03:34.46 bitrate=N/A speed=13.4x    frame= 5325 fps=323 q=-0.0 size=N/A time=00:03:42.09 bitrate=N/A speed=13.5x    frame= 5516 fps=324 q=-0.0 size=N/A time=00:03:50.06 bitrate=N/A speed=13.5x    frame= 5698 fps=325 q=-0.0 size=N/A time=00:03:57.65 bitrate=N/A speed=13.6x    frame= 5879 fps=326 q=-0.0 size=N/A time=00:04:05.20 bitrate=N/A speed=13.6x    frame= 6066 fps=327 q=-0.0 size=N/A time=00:04:13.00 bitrate=N/A speed=13.6x    frame= 6251 fps=328 q=-0.0 size=N/A time=00:04:20.71 bitrate=N/A speed=13.7x    frame= 6436 fps=328 q=-0.0 size=N/A time=00:04:28.43 bitrate=N/A speed=13.7x    frame= 6617 fps=329 q=-0.0 size=N/A time=00:04:35.98 bitrate=N/A speed=13.7x    frame= 6802 fps=330 q=-0.0 size=N/A time=00:04:43.70 bitrate=N/A speed=13.8x    frame= 6991 fps=331 q=-0.0 size=N/A time=00:04:51.58 bitrate=N/A speed=13.8x    frame= 7169 fps=331 q=-0.0 size=N/A time=00:04:59.00 bitrate=N/A speed=13.8x    frame= 7348 fps=332 q=-0.0 size=N/A time=00:05:06.47 bitrate=N/A speed=13.8x    frame= 7533 fps=332 q=-0.0 size=N/A time=00:05:14.18 bitrate=N/A speed=13.8x    frame= 7706 fps=332 q=-0.0 size=N/A time=00:05:21.40 bitrate=N/A speed=13.9x    frame= 7885 fps=333 q=-0.0 size=N/A time=00:05:28.87 bitrate=N/A speed=13.9x    frame= 8073 fps=333 q=-0.0 size=N/A time=00:05:36.71 bitrate=N/A speed=13.9x    frame= 8256 fps=334 q=-0.0 size=N/A time=00:05:44.34 bitrate=N/A speed=13.9x    frame= 8435 fps=334 q=-0.0 size=N/A time=00:05:51.80 bitrate=N/A speed=13.9x    frame= 8614 fps=334 q=-0.0 size=N/A time=00:05:59.27 bitrate=N/A speed=13.9x    frame= 8803 fps=335 q=-0.0 size=N/A time=00:06:07.15 bitrate=N/A speed=  14x    frame= 8973 fps=335 q=-0.0 size=N/A time=00:06:14.24 bitrate=N/A speed=  14x    frame= 9151 fps=335 q=-0.0 size=N/A time=00:06:21.67 bitrate=N/A speed=  14x    frame= 9343 fps=335 q=-0.0 size=N/A time=00:06:29.68 bitrate=N/A speed=  14x    frame= 9531 fps=336 q=-0.0 size=N/A time=00:06:37.52 bitrate=N/A speed=  14x    frame= 9709 fps=336 q=-0.0 size=N/A time=00:06:44.94 bitrate=N/A speed=  14x    frame= 9899 fps=337 q=-0.0 size=N/A time=00:06:52.87 bitrate=N/A speed=  14x    frame=10086 fps=337 q=-0.0 size=N/A time=00:07:00.67 bitrate=N/A speed=14.1x    frame=10265 fps=337 q=-0.0 size=N/A time=00:07:08.13 bitrate=N/A speed=14.1x    frame=10449 fps=337 q=-0.0 size=N/A time=00:07:15.81 bitrate=N/A speed=14.1x    frame=10622 fps=337 q=-0.0 size=N/A time=00:07:23.02 bitrate=N/A speed=14.1x    frame=10807 fps=338 q=-0.0 size=N/A time=00:07:30.74 bitrate=N/A speed=14.1x    frame=10989 fps=338 q=-0.0 size=N/A time=00:07:38.33 bitrate=N/A speed=14.1x    frame=11172 fps=338 q=-0.0 size=N/A time=00:07:45.96 bitrate=N/A speed=14.1x    frame=11353 fps=338 q=-0.0 size=N/A time=00:07:53.51 bitrate=N/A speed=14.1x    frame=11532 fps=339 q=-0.0 size=N/A time=00:08:00.98 bitrate=N/A speed=14.1x    frame=11713 fps=339 q=-0.0 size=N/A time=00:08:08.52 bitrate=N/A speed=14.1x    frame=11900 fps=339 q=-0.0 size=N/A time=00:08:16.32 bitrate=N/A speed=14.1x    frame=12078 fps=339 q=-0.0 size=N/A time=00:08:23.75 bitrate=N/A speed=14.1x    frame=12265 fps=340 q=-0.0 size=N/A time=00:08:31.55 bitrate=N/A speed=14.2x    frame=12449 fps=340 q=-0.0 size=N/A time=00:08:39.22 bitrate=N/A speed=14.2x    frame=12633 fps=340 q=-0.0 size=N/A time=00:08:46.90 bitrate=N/A speed=14.2x    frame=12817 fps=340 q=-0.0 size=N/A time=00:08:54.57 bitrate=N/A speed=14.2x    frame=12998 fps=340 q=-0.0 size=N/A time=00:09:02.12 bitrate=N/A speed=14.2x    frame=13189 fps=341 q=-0.0 size=N/A time=00:09:10.09 bitrate=N/A speed=14.2x    frame=13364 fps=341 q=-0.0 size=N/A time=00:09:17.39 bitrate=N/A speed=14.2x    frame=13534 fps=341 q=-0.0 size=N/A time=00:09:24.48 bitrate=N/A speed=14.2x    frame=13723 fps=341 q=-0.0 size=N/A time=00:09:32.36 bitrate=N/A speed=14.2x    frame=13903 fps=341 q=-0.0 size=N/A time=00:09:39.87 bitrate=N/A speed=14.2x    frame=14075 fps=341 q=-0.0 size=N/A time=00:09:47.04 bitrate=N/A speed=14.2x    frame=14237 fps=341 q=-0.0 size=N/A time=00:09:53.80 bitrate=N/A speed=14.2x    frame=14424 fps=341 q=-0.0 size=N/A time=00:10:01.60 bitrate=N/A speed=14.2x    frame=14610 fps=341 q=-0.0 size=N/A time=00:10:09.35 bitrate=N/A speed=14.2x    frame=14791 fps=341 q=-0.0 size=N/A time=00:10:16.90 bitrate=N/A speed=14.2x    frame=14970 fps=341 q=-0.0 size=N/A time=00:10:24.37 bitrate=N/A speed=14.2x    frame=15136 fps=341 q=-0.0 size=N/A time=00:10:31.29 bitrate=N/A speed=14.2x    frame=15310 fps=341 q=-0.0 size=N/A time=00:10:38.55 bitrate=N/A speed=14.2x    frame=15491 fps=341 q=-0.0 size=N/A time=00:10:46.10 bitrate=N/A speed=14.2x    frame=15680 fps=341 q=-0.0 size=N/A time=00:10:53.98 bitrate=N/A speed=14.2x    frame=15856 fps=341 q=-0.0 size=N/A time=00:11:01.32 bitrate=N/A speed=14.2x    frame=16037 fps=342 q=-0.0 size=N/A time=00:11:08.87 bitrate=N/A speed=14.2x    frame=16211 fps=342 q=-0.0 size=N/A time=00:11:16.13 bitrate=N/A speed=14.2x    frame=16395 fps=342 q=-0.0 size=N/A time=00:11:23.80 bitrate=N/A speed=14.3x    frame=16581 fps=342 q=-0.0 size=N/A time=00:11:31.56 bitrate=N/A speed=14.3x    frame=16766 fps=342 q=-0.0 size=N/A time=00:11:39.28 bitrate=N/A speed=14.3x    frame=16952 fps=342 q=-0.0 size=N/A time=00:11:47.03 bitrate=N/A speed=14.3x    frame=17134 fps=342 q=-0.0 size=N/A time=00:11:54.63 bitrate=N/A speed=14.3x    frame=17319 fps=343 q=-0.0 size=N/A time=00:12:02.34 bitrate=N/A speed=14.3x    frame=17499 fps=343 q=-0.0 size=N/A time=00:12:09.85 bitrate=N/A speed=14.3x    frame=17683 fps=343 q=-0.0 size=N/A time=00:12:17.52 bitrate=N/A speed=14.3x    frame=17867 fps=343 q=-0.0 size=N/A time=00:12:25.20 bitrate=N/A speed=14.3x    frame=18044 fps=343 q=-0.0 size=N/A time=00:12:32.58 bitrate=N/A speed=14.3x    frame=18228 fps=343 q=-0.0 size=N/A time=00:12:40.25 bitrate=N/A speed=14.3x    frame=18401 fps=343 q=-0.0 size=N/A time=00:12:47.47 bitrate=N/A speed=14.3x    frame=18588 fps=343 q=-0.0 size=N/A time=00:12:55.27 bitrate=N/A speed=14.3x    frame=18764 fps=343 q=-0.0 size=N/A time=00:13:02.61 bitrate=N/A speed=14.3x    frame=18953 fps=343 q=-0.0 size=N/A time=00:13:10.49 bitrate=N/A speed=14.3x    frame=19132 fps=343 q=-0.0 size=N/A time=00:13:17.96 bitrate=N/A speed=14.3x    frame=19314 fps=343 q=-0.0 size=N/A time=00:13:25.55 bitrate=N/A speed=14.3x    frame=19496 fps=344 q=-0.0 size=N/A time=00:13:33.14 bitrate=N/A speed=14.3x    frame=19682 fps=344 q=-0.0 size=N/A time=00:13:40.90 bitrate=N/A speed=14.3x    frame=19861 fps=344 q=-0.0 size=N/A time=00:13:48.36 bitrate=N/A speed=14.3x    frame=20044 fps=344 q=-0.0 size=N/A time=00:13:56.00 bitrate=N/A speed=14.3x    frame=20227 fps=344 q=-0.0 size=N/A time=00:14:03.63 bitrate=N/A speed=14.3x    frame=20412 fps=344 q=-0.0 size=N/A time=00:14:11.35 bitrate=N/A speed=14.3x    frame=20585 fps=344 q=-0.0 size=N/A time=00:14:18.56 bitrate=N/A speed=14.3x    frame=20763 fps=344 q=-0.0 size=N/A time=00:14:25.99 bitrate=N/A speed=14.3x    frame=20952 fps=344 q=-0.0 size=N/A time=00:14:33.87 bitrate=N/A speed=14.4x    frame=21134 fps=344 q=-0.0 size=N/A time=00:14:41.46 bitrate=N/A speed=14.4x    frame=21309 fps=344 q=-0.0 size=N/A time=00:14:48.76 bitrate=N/A speed=14.4x    frame=21497 fps=344 q=-0.0 size=N/A time=00:14:56.60 bitrate=N/A speed=14.4x    frame=21676 fps=344 q=-0.0 size=N/A time=00:15:04.06 bitrate=N/A speed=14.4x    frame=21859 fps=345 q=-0.0 size=N/A time=00:15:11.70 bitrate=N/A speed=14.4x    frame=22045 fps=345 q=-0.0 size=N/A time=00:15:19.46 bitrate=N/A speed=14.4x    frame=22234 fps=345 q=-0.0 size=N/A time=00:15:27.34 bitrate=N/A speed=14.4x    frame=22414 fps=345 q=-0.0 size=N/A time=00:15:34.85 bitrate=N/A speed=14.4x    frame=22606 fps=345 q=-0.0 size=N/A time=00:15:42.85 bitrate=N/A speed=14.4x    frame=22777 fps=345 q=-0.0 size=N/A time=00:15:49.99 bitrate=N/A speed=14.4x    frame=22963 fps=345 q=-0.0 size=N/A time=00:15:57.74 bitrate=N/A speed=14.4x    frame=23137 fps=345 q=-0.0 size=N/A time=00:16:05.00 bitrate=N/A speed=14.4x    frame=23319 fps=345 q=-0.0 size=N/A time=00:16:12.59 bitrate=N/A speed=14.4x    frame=23504 fps=345 q=-0.0 size=N/A time=00:16:20.31 bitrate=N/A speed=14.4x    frame=23688 fps=345 q=-0.0 size=N/A time=00:16:27.98 bitrate=N/A speed=14.4x    frame=23871 fps=345 q=-0.0 size=N/A time=00:16:35.61 bitrate=N/A speed=14.4x    frame=24053 fps=345 q=-0.0 size=N/A time=00:16:43.21 bitrate=N/A speed=14.4x    frame=24232 fps=345 q=-0.0 size=N/A time=00:16:50.67 bitrate=N/A speed=14.4x    frame=24409 fps=345 q=-0.0 size=N/A time=00:16:58.05 bitrate=N/A speed=14.4x    frame=24607 fps=346 q=-0.0 size=N/A time=00:17:06.31 bitrate=N/A speed=14.4x    frame=24790 fps=346 q=-0.0 size=N/A time=00:17:13.94 bitrate=N/A speed=14.4x    frame=24972 fps=346 q=-0.0 size=N/A time=00:17:21.54 bitrate=N/A speed=14.4x    frame=25151 fps=346 q=-0.0 size=N/A time=00:17:29.00 bitrate=N/A speed=14.4x    frame=25335 fps=346 q=-0.0 size=N/A time=00:17:36.68 bitrate=N/A speed=14.4x    frame=25522 fps=346 q=-0.0 size=N/A time=00:17:44.48 bitrate=N/A speed=14.4x    frame=25700 fps=346 q=-0.0 size=N/A time=00:17:51.90 bitrate=N/A speed=14.4x    frame=25890 fps=346 q=-0.0 size=N/A time=00:17:59.82 bitrate=N/A speed=14.4x    frame=26068 fps=346 q=-0.0 size=N/A time=00:18:07.25 bitrate=N/A speed=14.4x    frame=26249 fps=346 q=-0.0 size=N/A time=00:18:14.80 bitrate=N/A speed=14.4x    frame=26436 fps=346 q=-0.0 size=N/A time=00:18:22.60 bitrate=N/A speed=14.4x    frame=26623 fps=346 q=-0.0 size=N/A time=00:18:30.40 bitrate=N/A speed=14.4x    frame=26804 fps=346 q=-0.0 size=N/A time=00:18:37.95 bitrate=N/A speed=14.4x    frame=26981 fps=346 q=-0.0 size=N/A time=00:18:45.33 bitrate=N/A speed=14.4x    frame=27157 fps=346 q=-0.0 size=N/A time=00:18:52.67 bitrate=N/A speed=14.4x    frame=27333 fps=346 q=-0.0 size=N/A time=00:19:00.01 bitrate=N/A speed=14.4x    frame=27516 fps=346 q=-0.0 size=N/A time=00:19:07.64 bitrate=N/A speed=14.4x    frame=27690 fps=346 q=-0.0 size=N/A time=00:19:14.90 bitrate=N/A speed=14.4x    frame=27873 fps=346 q=-0.0 size=N/A time=00:19:22.53 bitrate=N/A speed=14.4x    frame=28055 fps=346 q=-0.0 size=N/A time=00:19:30.12 bitrate=N/A speed=14.4x    frame=28235 fps=346 q=-0.0 size=N/A time=00:19:37.63 bitrate=N/A speed=14.4x    frame=28423 fps=346 q=-0.0 size=N/A time=00:19:45.47 bitrate=N/A speed=14.5x    frame=28605 fps=346 q=-0.0 size=N/A time=00:19:53.06 bitrate=N/A speed=14.5x    frame=28777 fps=346 q=-0.0 size=N/A time=00:20:00.24 bitrate=N/A speed=14.4x    frame=28947 fps=346 q=-0.0 size=N/A time=00:20:07.33 bitrate=N/A speed=14.4x    frame=29119 fps=346 q=-0.0 size=N/A time=00:20:14.50 bitrate=N/A speed=14.4x    frame=29288 fps=346 q=-0.0 size=N/A time=00:20:21.55 bitrate=N/A speed=14.4x    frame=29450 fps=346 q=-0.0 size=N/A time=00:20:28.31 bitrate=N/A speed=14.4x    frame=29619 fps=346 q=-0.0 size=N/A time=00:20:35.35 bitrate=N/A speed=14.4x    frame=29795 fps=346 q=-0.0 size=N/A time=00:20:42.69 bitrate=N/A speed=14.4x    frame=29964 fps=346 q=-0.0 size=N/A time=00:20:49.74 bitrate=N/A speed=14.4x    frame=30127 fps=345 q=-0.0 size=N/A time=00:20:56.54 bitrate=N/A speed=14.4x    frame=30313 fps=346 q=-0.0 size=N/A time=00:21:04.30 bitrate=N/A speed=14.4x    frame=30499 fps=346 q=-0.0 size=N/A time=00:21:12.06 bitrate=N/A speed=14.4x    frame=30684 fps=346 q=-0.0 size=N/A time=00:21:19.77 bitrate=N/A speed=14.4x    frame=30868 fps=346 q=-0.0 size=N/A time=00:21:27.45 bitrate=N/A speed=14.4x    frame=31048 fps=346 q=-0.0 size=N/A time=00:21:34.96 bitrate=N/A speed=14.4x    frame=31229 fps=346 q=-0.0 size=N/A time=00:21:42.50 bitrate=N/A speed=14.4x    frame=31409 fps=346 q=-0.0 size=N/A time=00:21:50.01 bitrate=N/A speed=14.4x    frame=31596 fps=346 q=-0.0 size=N/A time=00:21:57.81 bitrate=N/A speed=14.4x    frame=31770 fps=346 q=-0.0 size=N/A time=00:22:05.07 bitrate=N/A speed=14.4x    frame=31949 fps=346 q=-0.0 size=N/A time=00:22:12.53 bitrate=N/A speed=14.4x    frame=32128 fps=346 q=-0.0 size=N/A time=00:22:20.00 bitrate=N/A speed=14.4x    frame=32313 fps=346 q=-0.0 size=N/A time=00:22:27.72 bitrate=N/A speed=14.4x    frame=32494 fps=346 q=-0.0 size=N/A time=00:22:35.27 bitrate=N/A speed=14.4x    frame=32656 fps=346 q=-0.0 size=N/A time=00:22:42.02 bitrate=N/A speed=14.4x    frame=32800 fps=345 q=-0.0 size=N/A time=00:22:48.03 bitrate=N/A speed=14.4x    frame=32967 fps=345 q=-0.0 size=N/A time=00:22:54.99 bitrate=N/A speed=14.4x    frame=33143 fps=345 q=-0.0 size=N/A time=00:23:02.33 bitrate=N/A speed=14.4x    frame=33321 fps=345 q=-0.0 size=N/A time=00:23:09.76 bitrate=N/A speed=14.4x    frame=33482 fps=345 q=-0.0 size=N/A time=00:23:16.47 bitrate=N/A speed=14.4x    frame=33637 fps=345 q=-0.0 size=N/A time=00:23:22.94 bitrate=N/A speed=14.4x    frame=33765 fps=344 q=-0.0 size=N/A time=00:23:28.28 bitrate=N/A speed=14.4x    frame=33885 fps=344 q=-0.0 size=N/A time=00:23:33.28 bitrate=N/A speed=14.3x    frame=34041 fps=344 q=-0.0 size=N/A time=00:23:39.79 bitrate=N/A speed=14.3x    frame=34199 fps=343 q=-0.0 size=N/A time=00:23:46.38 bitrate=N/A speed=14.3x    frame=34333 fps=343 q=-0.0 size=N/A time=00:23:51.97 bitrate=N/A speed=14.3x    frame=34462 fps=343 q=-0.0 size=N/A time=00:23:57.35 bitrate=N/A speed=14.3x    frame=34631 fps=342 q=-0.0 size=N/A time=00:24:04.40 bitrate=N/A speed=14.3x    [Parsed_ssim_16 @ 00000221bf98fc00] SSIM Y:0.993624 (21.954208) U:0.993787 (22.067083) V:0.993367 (21.782653) All:0.993608 (21.943626)
[out#0/null @ 00000221b215fd00] video:14903KiB audio:271276KiB subtitle:0KiB other streams:0KiB global headers:0KiB muxing overhead: unknown
frame=34683 fps=343 q=-0.0 Lsize=N/A time=00:24:06.57 bitrate=N/A speed=14.3x    
